<?xml version="1.0" encoding="UTF-8" standalone="no"?><!-- Generator: Gravit.io --><svg xmlns="http://www.w3.org/2000/svg" xmlns:xlink="http://www.w3.org/1999/xlink" style="isolation:isolate" viewBox="633.726 340 336.274 336.274" width="336.274pt" height="336.274pt"><defs><clipPath id="_clipPath_4NvGgKRVq0hRmBVuYSNXGr7OsBq60y3j"><rect x="633.726" y="340" width="336.274" height="336.274"/></clipPath></defs><g clip-path="url(#_clipPath_4NvGgKRVq0hRmBVuYSNXGr7OsBq60y3j)"><linearGradient id="_lgradient_0" x1="0" y1="0.5" x2="1" y2="0.5" gradientTransform="matrix(336.274,0,0,336.274,633.726,340)" gradientUnits="userSpaceOnUse"><stop offset="0.8695652173913043%" stop-opacity="1" style="stop-color:rgb(37,131,232)"/><stop offset="98.26086956521739%" stop-opacity="1" style="stop-color:rgb(43,26,153)"/></linearGradient><path d=" M 633.726 508.137 L 786.1 355.763 L 796.609 366.271 L 644.234 518.646 L 633.726 508.137 Z  M 791.354 350.509 L 801.863 340 L 970 508.137 L 959.491 518.646 L 791.354 350.509 Z  M 649.489 523.9 L 659.997 513.391 L 812.371 665.766 L 801.863 676.274 L 649.489 523.9 Z  M 807.117 650.003 L 938.474 518.646 L 948.983 529.154 L 817.626 660.511 L 807.117 650.003 Z  M 791.354 392.543 L 801.863 382.034 L 933.22 513.391 L 922.711 523.9 L 791.354 392.543 Z  M 675.76 508.137 L 786.1 397.797 L 796.609 408.306 L 686.269 518.646 L 675.76 508.137 Z  M 691.523 523.9 L 702.032 513.391 L 812.371 623.731 L 801.863 634.24 L 691.523 523.9 Z  M 733.557 523.9 L 744.066 513.391 L 812.371 581.697 L 801.863 592.206 L 733.557 523.9 Z  M 791.354 476.611 L 801.863 466.103 L 864.914 529.154 L 854.406 539.663 L 791.354 476.611 Z  M 807.117 607.968 L 896.44 518.646 L 906.949 529.154 L 817.626 618.477 L 807.117 607.968 Z  M 807.117 565.934 L 838.643 534.409 L 849.151 544.917 L 817.626 576.443 L 807.117 565.934 Z  M 791.354 539.663 L 812.371 518.646 L 822.88 529.154 L 801.863 550.171 L 791.354 539.663 Z  M 780.846 529.154 L 801.863 508.137 L 812.371 518.646 L 791.354 539.663 L 780.846 529.154 Z  M 791.354 434.577 L 801.863 424.069 L 891.186 513.391 L 880.677 523.9 L 791.354 434.577 Z  M 717.794 508.137 L 786.1 439.831 L 796.609 450.34 L 728.303 518.646 L 717.794 508.137 Z  M 759.829 508.137 L 786.1 481.866 L 796.609 492.374 L 770.337 518.646 L 759.829 508.137 Z " fill-rule="evenodd" fill="url(#_lgradient_0)"/></g></svg>