<?xml version="1.0" encoding="UTF-8" standalone="no"?><!-- Generator: Gravit.io --><svg xmlns="http://www.w3.org/2000/svg" xmlns:xlink="http://www.w3.org/1999/xlink" style="isolation:isolate" viewBox="705 132 427.569 475.614" width="427.569pt" height="475.614pt"><defs><clipPath id="_clipPath_TNh4Hq1EDhWuMqs36tYbinkDF5rPFlGS"><rect x="705" y="132" width="427.569" height="475.614"/></clipPath></defs><g clip-path="url(#_clipPath_TNh4Hq1EDhWuMqs36tYbinkDF5rPFlGS)"><linearGradient id="_lgradient_9" x1="0.23329732866779374" y1="0.009270315072714252" x2="0.7659539123958541" y2="1.004284132877379" gradientTransform="matrix(247.814,0,0,323.614,795.186,284)" gradientUnits="userSpaceOnUse"><stop offset="0%" stop-opacity="1" style="stop-color:rgb(32,204,83)"/><stop offset="97.3913043478261%" stop-opacity="1" style="stop-color:rgb(11,204,69)"/></linearGradient><path d=" M 981.046 284 L 1043 354 L 1043 500.307 L 1012.023 553.96 L 981.046 607.614 L 919.093 607.614 L 857.139 607.614 L 826.162 553.96 L 795.186 500.307 L 795.186 354 L 857.139 284 L 919.093 284 L 981.046 284 Z " fill="url(#_lgradient_9)"/><linearGradient id="_lgradient_10" x1="0.2386768669165939" y1="0.0067074341765003265" x2="0.7556996644891654" y2="1.0055930380143039" gradientTransform="matrix(210.822,0,0,275.307,813.682,308.153)" gradientUnits="userSpaceOnUse"><stop offset="0%" stop-opacity="1" style="stop-color:rgb(88,240,134)"/><stop offset="96.95652173913044%" stop-opacity="1" style="stop-color:rgb(47,219,99)"/></linearGradient><path d=" M 971.798 308.153 L 1024.504 367.704 L 1024.504 492.171 L 998.151 537.816 L 971.798 583.46 L 919.093 583.46 L 866.387 583.46 L 840.034 537.816 L 813.682 492.171 L 813.682 367.704 L 866.387 308.153 L 919.093 308.153 L 971.798 308.153 Z " fill="url(#_lgradient_10)"/><linearGradient id="_lgradient_11" x1="0.26151021512740164" y1="0.011812980943584961" x2="0.7644126859128981" y2="1.0318313335088338" gradientTransform="matrix(147.146,0,0,192.153,845.52,349.73)" gradientUnits="userSpaceOnUse"><stop offset="0%" stop-opacity="1" style="stop-color:rgb(32,204,83)"/><stop offset="97.82608695652173%" stop-opacity="1" style="stop-color:rgb(0,255,68)"/></linearGradient><path d=" M 955.879 349.73 L 992.666 391.294 L 992.666 478.167 L 974.272 510.026 L 955.879 541.884 L 919.093 541.884 L 882.306 541.884 L 863.913 510.026 L 845.52 478.167 L 845.52 391.294 L 882.306 349.73 L 919.093 349.73 L 955.879 349.73 Z " fill="url(#_lgradient_11)"/><linearGradient id="_lgradient_12" x1="-0.013100436681222412" y1="0.6052631578947365" x2="0.9956331877729252" y2="0.5986842105263154" gradientTransform="matrix(195.151,0,0,152,821.517,132)" gradientUnits="userSpaceOnUse"><stop offset="0%" stop-opacity="1" style="stop-color:rgb(38,242,96)"/><stop offset="100%" stop-opacity="1" style="stop-color:rgb(36,168,66)"/></linearGradient><path d=" M 870.305 207 L 919.093 241 L 967.881 207 L 955.879 132 L 1016.668 224.391 L 992.274 254.195 L 967.881 284 L 919.093 284 L 870.305 284 L 845.911 254.195 L 821.517 224.391 L 882.306 132 L 870.305 207 Z " fill="url(#_lgradient_12)"/><rect x="755.186" y="341.204" width="27" height="53" transform="matrix(0,-1,1,0,400.981,1136.39)" fill="rgb(68,68,68)"/><rect x="719.784" y="326.42" width="27" height="53" transform="matrix(0.707,-0.707,0.707,0.707,-34.778,621.878)" fill="rgb(68,68,68)"/><rect x="1090.784" y="475.091" width="27" height="53" transform="matrix(0.707,-0.707,0.707,0.707,-31.241,927.76)" fill="rgb(68,68,68)"/><rect x="719.784" y="475.091" width="27" height="53" transform="matrix(0.707,0.707,-0.707,0.707,569.452,-371.598)" fill="rgb(68,68,68)"/><rect x="1090.784" y="326.42" width="27" height="53" transform="matrix(0.707,0.707,-0.707,0.707,572.99,-677.479)" fill="rgb(68,68,68)"/><rect x="755.186" y="405.807" width="27" height="53" transform="matrix(0,-1,1,0,336.379,1200.992)" fill="rgb(68,68,68)"/><rect x="1056" y="460.307" width="27" height="53" transform="matrix(0,-1,1,0,582.693,1556.307)" fill="rgb(68,68,68)"/><rect x="755.186" y="460.307" width="27" height="53" transform="matrix(0,-1,1,0,281.879,1255.492)" fill="rgb(68,68,68)"/><rect x="1056" y="341.204" width="27" height="53" transform="matrix(0,-1,1,0,701.796,1437.204)" fill="rgb(68,68,68)"/><rect x="1056" y="405.807" width="27" height="53" transform="matrix(0,-1,1,0,637.193,1501.807)" fill="rgb(68,68,68)"/><rect x="1092.569" y="405.807" width="27" height="53" transform="matrix(0,-1,1,0,673.762,1538.375)" fill="rgb(68,68,68)"/><rect x="718" y="405.807" width="27" height="53" transform="matrix(0,-1,1,0,299.193,1163.807)" fill="rgb(68,68,68)"/></g></svg>