<?xml version="1.0" encoding="UTF-8" standalone="no"?><!-- Generator: Gravit.io --><svg xmlns="http://www.w3.org/2000/svg" xmlns:xlink="http://www.w3.org/1999/xlink" style="isolation:isolate" viewBox="407 233 742.227 459.548" width="742.227pt" height="459.548pt"><defs><clipPath id="_clipPath_bUNFGRZjspocQv8AZE9DdNdEsbMPu5MR"><rect x="407" y="233" width="742.227" height="459.548"/></clipPath></defs><g clip-path="url(#_clipPath_bUNFGRZjspocQv8AZE9DdNdEsbMPu5MR)"><linearGradient id="_lgradient_0" x1="0" y1="0.5" x2="1" y2="0.5" gradientTransform="matrix(333.541,148.24,-148.24,333.541,688.673,260.633)" gradientUnits="userSpaceOnUse"><stop offset="0%" stop-opacity="1" style="stop-color:rgb(67,87,234)"/><stop offset="100%" stop-opacity="1" style="stop-color:rgb(163,44,202)"/></linearGradient><path d=" M 614.553 427.404 C 655.46 335.36 763.4 293.845 855.443 334.753 C 947.487 375.661 989.002 483.6 948.094 575.644 C 907.186 667.687 799.247 709.202 707.203 668.294 C 615.16 627.386 573.645 519.447 614.553 427.404 Z " fill="url(#_lgradient_0)" vector-effect="non-scaling-stroke" stroke-width="17" stroke="rgb(230,230,230)" stroke-linejoin="miter" stroke-linecap="square" stroke-miterlimit="3"/><defs><linearGradient id="_lgradient_1" x1="0" y1="0.5" x2="1" y2="0.5"><stop offset="0%" style="stop-color:#7B7B7B"/><stop offset="97.82608695652173%" style="stop-color:#B0AAAA"/></linearGradient></defs><path d="M 581.229 623.025 L 979.572 388.953 C 993.004 381.06 1005.965 378.152 1008.498 382.462 L 1008.498 382.462 C 1011.031 386.773 1002.183 396.68 988.751 404.573 L 590.408 638.646 C 576.976 646.538 564.015 649.447 561.482 645.136 L 561.482 645.136 C 558.949 640.825 567.797 630.918 581.229 623.025 Z" style="stroke:none;fill:url(#_lgradient_1);stroke-miterlimit:10;"/><linearGradient id="_lgradient_2" x1="0" y1="0.5" x2="1" y2="0.5" gradientTransform="matrix(228.818,-217.928,40.355,42.372,393.675,638.108)" gradientUnits="userSpaceOnUse"><stop offset="0%" stop-opacity="0.53" style="stop-color:rgb(59,180,255)"/><stop offset="97.3913043478261%" stop-opacity="1" style="stop-color:rgb(255,168,168)"/></linearGradient><path d=" M 412.237 657.34 C 383.379 635.11 482.663 555.445 494.063 544.588 Q 505.463 533.73 644.227 443 Q 544.774 575.006 533.374 585.863 C 521.974 596.721 431.548 677.615 412.237 657.34 Z " fill="url(#_lgradient_2)"/><linearGradient id="_lgradient_3" x1="0" y1="0.5" x2="1" y2="0.5" gradientTransform="matrix(228.817,-217.927,35.625,37.405,897.659,558.039)" gradientUnits="userSpaceOnUse"><stop offset="0%" stop-opacity="1" style="stop-color:rgb(59,180,255)"/><stop offset="97.3913043478261%" stop-opacity="1" style="stop-color:rgb(255,168,168)"/></linearGradient><path d=" M 917.237 578.34 C 888.379 556.11 985.892 473.512 999.063 465.588 Q 1015 456 1149.227 364 Q 1051 472 1038.374 492 C 1030.218 504.92 936.548 598.615 917.237 578.34 Z " fill="url(#_lgradient_3)"/><ellipse vector-effect="non-scaling-stroke" cx="963.8477739734819" cy="253" rx="20.5" ry="20.000000000000014" fill="rgb(230,230,230)"/><ellipse vector-effect="non-scaling-stroke" cx="566.0710956788035" cy="397.99999999999994" rx="20.5" ry="20" fill="rgb(74,74,74)"/></g></svg>