<svg xmlns="http://www.w3.org/2000/svg" viewBox="0 0 32 32">
    <path id="playstation" d="M18.73323,10.48953v6.72886c2.844,1.36719,5.08211-.00171,5.08211-3.61323,0-3.7051-1.31033-5.3497-5.17363-6.67063a59.92662,59.92662,0,0,0-6.68741-1.717V25.30869L16.919,26.75124V9.90068c0-.78982.35394-1.31708.92427-1.135C18.58782,8.97224,18.73323,9.69919,18.73323,10.48953Zm9.06128,8.84534a14.54186,14.54186,0,0,0-6.32829-.75043,16.83476,16.83476,0,0,0-3.39952.7167l-.28179.09476v2.731l4.88851-1.71535a4.979,4.979,0,0,1,2.73289-.1409c.67582.22085.54864.64077-.284.93807l-7.33738,2.60493v2.63113l9.97061-3.56806a5.2484,5.2484,0,0,0,1.88758-1.1778C30.1895,21.01075,29.94666,20.01266,27.79451,19.33487ZM2.4172,20.88348c-1.00677.74408-.60958,1.93919,1.57039,2.65514a14.15607,14.15607,0,0,0,6.80639.87082c.14046-.02493.29415-.05148.43123-.07746V21.8849L9.214,22.4795a4.97793,4.97793,0,0,1-2.7329.14041c-.67573-.22085-.5486-.64077.28411-.93807l4.46-1.5172V17.42977L4.93139,19.67891A10.83362,10.83362,0,0,0,2.4172,20.88348Z" fill="#262626"/>
</svg>
