<?xml version="1.0" encoding="UTF-8" standalone="no"?><!-- Generator: Gravit.io --><svg xmlns="http://www.w3.org/2000/svg" xmlns:xlink="http://www.w3.org/1999/xlink" style="isolation:isolate" viewBox="689 178 326 664" width="326pt" height="664pt"><defs><clipPath id="_clipPath_1aifnPpEnyt6HE9vz4ry7C0x6xECcZ04"><rect x="689" y="178" width="326" height="664"/></clipPath></defs><g clip-path="url(#_clipPath_1aifnPpEnyt6HE9vz4ry7C0x6xECcZ04)"><linearGradient id="_lgradient_0" x1="-0.05828220858895744" y1="1.019578313253012" x2="0.9999999999999993" y2="-4.440892098500626e-16" gradientTransform="matrix(326,0,0,664,689,178)" gradientUnits="userSpaceOnUse"><stop offset="0.43478260869565216%" stop-opacity="1" style="stop-color:rgb(20,98,255)"/><stop offset="99.56521739130434%" stop-opacity="1" style="stop-color:rgb(0,170,255)"/><stop offset="100%" stop-opacity="1" style="stop-color:rgb(0,0,0)"/></linearGradient><path d=" M 947.845 233.304 L 947 436 L 947 436 L 947 436 L 947 436 L 1015 504 L 1015 178 L 1015 178 L 689 178 L 755 234 L 947 234 L 947.845 233.304 Z  M 807 436 L 947 436 L 1015 504 L 870 504 L 807 436 L 807 436 L 807 436 L 807 436 Z  M 870 504 L 870 706.846 L 807 762 L 807 436 L 870 504 L 870 504 L 870 504 Z  M 807 789 L 870 789 L 870 842 L 807 842 L 807 789 L 807 789 Z " fill-rule="evenodd" fill="url(#_lgradient_0)"/></g></svg>