<?xml version="1.0" encoding="UTF-8" standalone="no"?><!-- Generator: Gravit.io --><svg xmlns="http://www.w3.org/2000/svg" xmlns:xlink="http://www.w3.org/1999/xlink" style="isolation:isolate" viewBox="844.5 304 530.873 580.5" width="530.873pt" height="580.5pt"><defs><clipPath id="_clipPath_YIrj9n44T7esIuApvGkloKABPIfv1ect"><rect x="844.5" y="304" width="530.873" height="580.5"/></clipPath></defs><g clip-path="url(#_clipPath_YIrj9n44T7esIuApvGkloKABPIfv1ect)"><g><linearGradient id="_lgradient_0" x1="0" y1="0.5" x2="1" y2="0.5" gradientTransform="matrix(75,0,0,73,1060,524)" gradientUnits="userSpaceOnUse"><stop offset="0%" stop-opacity="1" style="stop-color:rgb(0,94,255)"/><stop offset="98.26086956521739%" stop-opacity="1" style="stop-color:rgb(139,7,255)"/></linearGradient><path d=" M 1069 524 L 1124 524 L 1135 597 L 1060 597 L 1069 524 Z " fill="url(#_lgradient_0)"/><linearGradient id="_lgradient_1" x1="0" y1="0.5" x2="1" y2="0.5" gradientTransform="matrix(119,0,0,11,1038,597)" gradientUnits="userSpaceOnUse"><stop offset="0%" stop-opacity="1" style="stop-color:rgb(0,94,255)"/><stop offset="98.26086956521739%" stop-opacity="1" style="stop-color:rgb(139,7,255)"/></linearGradient><rect x="1038" y="597" width="119" height="11" transform="matrix(1,0,0,1,0,0)" fill="url(#_lgradient_1)"/><linearGradient id="_lgradient_2" x1="0.9999999999999993" y1="0.02304147465437789" x2="0.005063291139240089" y2="0.9677419354838704"><stop offset="0%" stop-opacity="1" style="stop-color:rgb(0,47,255)"/><stop offset="97.82608695652173%" stop-opacity="1" style="stop-color:rgb(182,13,255)"/></linearGradient><rect x="900" y="307" width="395" height="217" transform="matrix(1,0,0,1,0,0)" fill="rgb(70,70,70)" vector-effect="non-scaling-stroke" stroke-width="6" stroke="url(#_lgradient_2)" stroke-linejoin="miter" stroke-linecap="square" stroke-miterlimit="2"/></g><g><defs><linearGradient id="_lgradient_3" x1="0.4679653679653688" y1="0.013888888888889062" x2="0.48322510822510895" y2="0.9750000000000002"><stop offset="0.8695652173913043%" style="stop-color:#00FF95"/><stop offset="97.3913043478261%" style="stop-color:#25C5FF"/></linearGradient></defs><path d="M 874.734 483 L 985.103 483 C 1001.514 483 1014.837 496.323 1014.837 512.734 L 1014.837 764.266 C 1014.837 780.677 1001.514 794 985.103 794 L 874.734 794 C 858.323 794 845 780.677 845 764.266 L 845 512.734 C 845 496.323 858.323 483 874.734 483 Z" style="stroke:none;fill:url(#_lgradient_3);stroke-miterlimit:10;"/><path d="M 874.734 483 L 985.103 483 C 1001.514 483 1014.837 496.323 1014.837 512.734 L 1014.837 764.266 C 1014.837 780.677 1001.514 794 985.103 794 L 874.734 794 C 858.323 794 845 780.677 845 764.266 L 845 512.734 C 845 496.323 858.323 483 874.734 483 Z" style="fill:none;stroke:#000000;stroke-width:1;stroke-linecap:square;stroke-miterlimit:2;"/><path d="M 872.069 505.461 L 988.117 505.461 C 998.766 505.461 1007.411 514.106 1007.411 524.755 L 1007.411 751.381 C 1007.411 762.03 998.766 770.675 988.117 770.675 L 872.069 770.675 C 861.42 770.675 852.775 762.03 852.775 751.381 L 852.775 524.755 C 852.775 514.106 861.42 505.461 872.069 505.461 Z" style="stroke:none;fill:#464646;stroke-linecap:square;stroke-miterlimit:2;"/></g><g><defs><linearGradient id="_lgradient_4" x1="0.4679653679653688" y1="0.013888888888889062" x2="0.48322510822510895" y2="0.9750000000000002"><stop offset="0.8695652173913043%" style="stop-color:#FF5100"/><stop offset="97.3913043478261%" style="stop-color:#F43D3D"/></linearGradient></defs><path d="M 1137.406 541 L 1334.968 541 C 1356.992 541 1374.873 558.881 1374.873 580.906 L 1374.873 844.094 C 1374.873 866.119 1356.992 884 1334.968 884 L 1137.406 884 C 1115.381 884 1097.5 866.119 1097.5 844.094 L 1097.5 580.906 C 1097.5 558.881 1115.381 541 1137.406 541 Z" style="stroke:none;fill:url(#_lgradient_4);stroke-linecap:square;stroke-miterlimit:2;"/><path d="M 1137.406 541 L 1334.968 541 C 1356.992 541 1374.873 558.881 1374.873 580.906 L 1374.873 844.094 C 1374.873 866.119 1356.992 884 1334.968 884 L 1137.406 884 C 1115.381 884 1097.5 866.119 1097.5 844.094 L 1097.5 580.906 C 1097.5 558.881 1115.381 541 1137.406 541 Z" style="fill:none;stroke:#000000;stroke-width:1;stroke-linecap:square;stroke-miterlimit:2;"/><path d="M 1136.74 565.772 L 1336.204 565.772 C 1350.853 565.772 1362.746 577.665 1362.746 592.314 L 1362.746 831.733 C 1362.746 846.382 1350.853 858.275 1336.204 858.275 L 1136.74 858.275 C 1122.091 858.275 1110.198 846.382 1110.198 831.733 L 1110.198 592.314 C 1110.198 577.665 1122.091 565.772 1136.74 565.772 Z" style="stroke:none;fill:#464646;stroke-linecap:square;stroke-miterlimit:2;"/></g></g></svg>