<?xml version="1.0" encoding="UTF-8" standalone="no"?><!-- Generator: Gravit.io --><svg xmlns="http://www.w3.org/2000/svg" xmlns:xlink="http://www.w3.org/1999/xlink" style="isolation:isolate" viewBox="411.212 234 426.788 414.789" width="426.788pt" height="414.789pt"><defs><clipPath id="_clipPath_53nBb99oB0LaGCpdWiFPpSyU42Yhxm3t"><rect x="411.212" y="234" width="426.788" height="414.789"/></clipPath></defs><g clip-path="url(#_clipPath_53nBb99oB0LaGCpdWiFPpSyU42Yhxm3t)"><linearGradient id="_lgradient_13" x1="0" y1="0.5" x2="1" y2="0.5" gradientTransform="matrix(300,0,0,196.789,411.212,234)" gradientUnits="userSpaceOnUse"><stop offset="0.8695652173913043%" stop-opacity="1" style="stop-color:rgb(255,0,221)"/><stop offset="96.95652173913044%" stop-opacity="1" style="stop-color:rgb(221,6,6)"/><stop offset="100%" stop-opacity="1" style="stop-color:rgb(222,6,11)"/></linearGradient><path d=" M 711.212 429.413 L 691.946 429.413 L 691.946 234 L 711.212 234 L 711.212 429.413 Z  M 493.231 413.45 L 493.231 413.45 L 493.231 413.45 Q 511.671 413.45 523.919 406.431 L 523.919 406.431 L 523.919 406.431 Q 536.166 399.413 543.46 387.991 L 543.46 387.991 L 543.46 387.991 Q 550.754 376.569 553.644 361.982 L 553.644 361.982 L 553.644 361.982 Q 556.533 347.394 556.533 332.532 L 556.533 332.532 L 556.533 234 L 575.799 234 L 575.799 332.532 L 575.799 332.532 Q 575.799 352.349 571.396 370.101 L 571.396 370.101 L 571.396 370.101 Q 566.992 387.853 557.221 401.339 L 557.221 401.339 L 557.221 401.339 Q 547.451 414.826 531.763 422.807 L 531.763 422.807 L 531.763 422.807 Q 516.075 430.789 493.506 430.789 L 493.506 430.789 L 493.506 430.789 Q 470.387 430.789 454.561 422.394 L 454.561 422.394 L 454.561 422.394 Q 438.735 414 429.102 400.239 L 429.102 400.239 L 429.102 400.239 Q 419.469 386.477 415.341 368.862 L 415.341 368.862 L 415.341 368.862 Q 411.212 351.248 411.212 332.532 L 411.212 332.532 L 411.212 234 L 430.203 234 L 430.203 332.532 L 430.203 332.532 Q 430.203 347.945 433.231 362.532 L 433.231 362.532 L 433.231 362.532 Q 436.258 377.119 443.552 388.404 L 443.552 388.404 L 443.552 388.404 Q 450.845 399.688 462.955 406.569 L 462.955 406.569 L 462.955 406.569 Q 475.066 413.45 493.231 413.45 Z " fill="url(#_lgradient_13)"/><linearGradient id="_lgradient_14" x1="0" y1="0.5" x2="1" y2="0.5" gradientTransform="matrix(426.788,0,0,196.789,411.212,452)" gradientUnits="userSpaceOnUse"><stop offset="0%" stop-opacity="1" style="stop-color:rgb(25,22,206)"/><stop offset="100%" stop-opacity="1" style="stop-color:rgb(255,0,0)"/></linearGradient><path d=" M 667.614 452 L 689.254 452 L 753.081 537.321 L 816.907 452 L 838 452 L 763.216 551.083 L 835.809 647.413 L 814.716 647.413 L 753.081 564.844 L 691.446 647.413 L 669.805 647.413 L 742.397 551.083 L 667.614 452 Z  M 492.844 631.45 L 492.844 631.45 L 492.844 631.45 Q 511.198 631.45 523.388 624.431 L 523.388 624.431 L 523.388 624.431 Q 535.578 617.413 542.837 605.991 L 542.837 605.991 L 542.837 605.991 Q 550.096 594.569 552.973 579.982 L 552.973 579.982 L 552.973 579.982 Q 555.849 565.394 555.849 550.532 L 555.849 550.532 L 555.849 452 L 575.024 452 L 575.024 550.532 L 575.024 550.532 Q 575.024 570.349 570.641 588.101 L 570.641 588.101 L 570.641 588.101 Q 566.258 605.853 556.534 619.339 L 556.534 619.339 L 556.534 619.339 Q 546.809 632.826 531.195 640.807 L 531.195 640.807 L 531.195 640.807 C 523.68 644.649 514.975 647.104 505.081 648.172 C 501.27 648.583 497.282 648.789 493.118 648.789 L 493.118 648.789 L 493.118 648.789 Q 470.108 648.789 454.357 640.394 L 454.357 640.394 L 454.357 640.394 Q 438.606 632 429.018 618.239 L 429.018 618.239 L 429.018 618.239 Q 419.43 604.477 415.321 586.862 L 415.321 586.862 L 415.321 586.862 Q 411.212 569.248 411.212 550.532 L 411.212 550.532 L 411.212 452 L 430.114 452 L 430.114 550.532 L 430.114 550.532 Q 430.114 565.945 433.127 580.532 L 433.127 580.532 L 433.127 580.532 Q 436.14 595.119 443.399 606.404 L 443.399 606.404 L 443.399 606.404 Q 450.659 617.688 462.712 624.569 L 462.712 624.569 L 462.712 624.569 Q 474.765 631.45 492.844 631.45 Z " fill="url(#_lgradient_14)"/></g></svg>